<svg width="24" height="24" viewBox="0 0 24 24" fill="none" xmlns="http://www.w3.org/2000/svg">
<g clip-path="url(#clip0_204_2897)">
<path d="M14.3167 7.75689L8.85575 13.4139C8.76354 13.5061 8.68998 13.6165 8.63938 13.7385C8.58878 13.8605 8.56214 13.9917 8.56103 14.1245C8.55991 14.2573 8.58434 14.3889 8.63289 14.5118C8.68144 14.6347 8.75313 14.7464 8.84379 14.8403C8.93444 14.9342 9.04224 15.0084 9.1609 15.0587C9.27956 15.109 9.4067 15.1343 9.5349 15.1331C9.6631 15.132 9.78979 15.1044 9.90759 15.052C10.0254 14.9996 10.1319 14.9234 10.221 14.8279L15.6829 9.17189C16.2262 8.60923 16.5314 7.8461 16.5314 7.05039C16.5314 6.25467 16.2262 5.49154 15.6829 4.92889C15.1397 4.36623 14.4029 4.05013 13.6346 4.05013C12.8663 4.05013 12.1295 4.36623 11.5862 4.92889L6.1243 10.5859C5.66672 11.048 5.30229 11.5996 5.05215 12.2088C4.80201 12.8179 4.67115 13.4724 4.66714 14.1344C4.66314 14.7963 4.78608 15.4525 5.02883 16.0648C5.27157 16.6771 5.6293 17.2334 6.08126 17.7015C6.53321 18.1695 7.0704 18.5399 7.66165 18.7913C8.25291 19.0426 8.88646 19.1698 9.52557 19.1656C10.1647 19.1614 10.7966 19.0257 11.3847 18.7666C11.9728 18.5074 12.5053 18.1299 12.9515 17.6559L18.4134 11.9999L19.7786 13.4139L14.3167 19.0709C13.6891 19.7209 12.944 20.2366 12.124 20.5884C11.3039 20.9402 10.425 21.1212 9.53741 21.1212C8.64981 21.1212 7.7709 20.9402 6.95086 20.5884C6.13083 20.2366 5.38573 19.7209 4.7581 19.0709C4.13047 18.4208 3.63261 17.6491 3.29294 16.7998C2.95327 15.9505 2.77844 15.0402 2.77844 14.1209C2.77844 13.2016 2.95327 12.2913 3.29294 11.442C3.63261 10.5926 4.13047 9.82093 4.7581 9.17089L10.221 3.51489C11.1315 2.6041 12.3509 2.10013 13.6167 2.11152C14.8825 2.12291 16.0933 2.64875 16.9884 3.57579C17.8835 4.50284 18.3912 5.7569 18.4022 7.06788C18.4132 8.37887 17.9266 9.64188 17.0472 10.5849L11.5862 16.2439C11.3172 16.5225 10.9978 16.7435 10.6463 16.8942C10.2947 17.045 9.91801 17.1225 9.53755 17.1225C9.15709 17.1224 8.78037 17.0448 8.42889 16.894C8.07741 16.7431 7.75806 16.5221 7.48906 16.2434C7.22007 15.9647 7.00671 15.6339 6.86115 15.2698C6.7156 14.9058 6.64071 14.5156 6.64075 14.1215C6.6408 13.7275 6.71578 13.3373 6.86141 12.9733C7.00705 12.6092 7.22049 12.2785 7.48955 11.9999L12.9515 6.34289L14.3167 7.75689Z" fill="#B9C5C9"/>
</g>
<defs>
<clipPath id="clip0_204_2897">
<rect width="23.1724" height="24" fill="white"/>
</clipPath>
</defs>
</svg>
