<svg width="14" height="15" viewBox="0 0 14 15" fill="none" xmlns="http://www.w3.org/2000/svg">
<path d="M13.3636 2.5H10.8182V1.875C10.8182 1.37772 10.617 0.900805 10.259 0.549175C9.901 0.197544 9.41541 0 8.90909 0L5.09091 0C4.58459 0 4.099 0.197544 3.74098 0.549175C3.38295 0.900805 3.18182 1.37772 3.18182 1.875V2.5H0.636364C0.46759 2.5 0.305728 2.56585 0.186387 2.68306C0.0670452 2.80027 0 2.95924 0 3.125C0 3.29076 0.0670452 3.44973 0.186387 3.56694C0.305728 3.68415 0.46759 3.75 0.636364 3.75H1.30709L1.84545 13.2294C1.87264 13.7083 2.08572 14.1589 2.44084 14.4882C2.79596 14.8176 3.26611 15.0007 3.75455 15H10.2505C10.739 15.0007 11.2091 14.8176 11.5643 14.4882C11.9194 14.1589 12.1324 13.7083 12.1596 13.2294L12.6929 3.75H13.3636C13.5324 3.75 13.6943 3.68415 13.8136 3.56694C13.933 3.44973 14 3.29076 14 3.125C14 2.95924 13.933 2.80027 13.8136 2.68306C13.6943 2.56585 13.5324 2.5 13.3636 2.5ZM4.45455 1.875C4.45455 1.70924 4.52159 1.55027 4.64093 1.43306C4.76027 1.31585 4.92213 1.25 5.09091 1.25H8.90909C9.07786 1.25 9.23973 1.31585 9.35907 1.43306C9.47841 1.55027 9.54545 1.70924 9.54545 1.875V2.5H4.45455V1.875ZM5.09091 10.625C5.09091 10.7908 5.02386 10.9497 4.90452 11.0669C4.78518 11.1842 4.62332 11.25 4.45455 11.25C4.28577 11.25 4.12391 11.1842 4.00457 11.0669C3.88523 10.9497 3.81818 10.7908 3.81818 10.625V6.875C3.81818 6.70924 3.88523 6.55027 4.00457 6.43306C4.12391 6.31585 4.28577 6.25 4.45455 6.25C4.62332 6.25 4.78518 6.31585 4.90452 6.43306C5.02386 6.55027 5.09091 6.70924 5.09091 6.875V10.625ZM7.63636 10.625C7.63636 10.7908 7.56932 10.9497 7.44998 11.0669C7.33064 11.1842 7.16877 11.25 7 11.25C6.83123 11.25 6.66936 11.1842 6.55002 11.0669C6.43068 10.9497 6.36364 10.7908 6.36364 10.625V6.875C6.36364 6.70924 6.43068 6.55027 6.55002 6.43306C6.66936 6.31585 6.83123 6.25 7 6.25C7.16877 6.25 7.33064 6.31585 7.44998 6.43306C7.56932 6.55027 7.63636 6.70924 7.63636 6.875V10.625ZM10.1818 10.625C10.1818 10.7908 10.1148 10.9497 9.99543 11.0669C9.87609 11.1842 9.71423 11.25 9.54545 11.25C9.37668 11.25 9.21482 11.1842 9.09548 11.0669C8.97614 10.9497 8.90909 10.7908 8.90909 10.625V6.875C8.90909 6.70924 8.97614 6.55027 9.09548 6.43306C9.21482 6.31585 9.37668 6.25 9.54545 6.25C9.71423 6.25 9.87609 6.31585 9.99543 6.43306C10.1148 6.55027 10.1818 6.70924 10.1818 6.875V10.625Z" fill="#B9C5C9"/>
</svg>
