<svg width="19" height="18" viewBox="0 0 19 18" fill="none" xmlns="http://www.w3.org/2000/svg">
<g clip-path="url(#clip0_227_748)">
<path fill-rule="evenodd" clip-rule="evenodd" d="M5.26825 0H10.6869L15.4701 4.78409V13.971C15.4701 15.0865 14.5576 16 13.4411 16H5.26828C4.15272 16 3.24016 15.0865 3.24016 13.971V2.02903C3.24016 0.913469 4.15272 0 5.26825 0Z" fill="#D5D9E1"/>
<path fill-rule="evenodd" clip-rule="evenodd" d="M10.6869 0L15.4701 4.78409H11.2027C10.9183 4.78409 10.6869 4.55184 10.6869 4.26747V0Z" fill="#B71D21"/>
<path fill-rule="evenodd" clip-rule="evenodd" d="M0.975189 6.81323H11.9945C12.2396 6.81323 12.4398 7.01348 12.4398 7.25854V11.301C12.4398 11.5461 12.2396 11.7464 11.9945 11.7464H0.975189C0.730127 11.7464 0.529877 11.5461 0.529877 11.301V7.25854C0.529877 7.01348 0.730158 6.81323 0.975189 6.81323Z" fill="#B71D21"/>
<path d="M3.67997 7.63745H2.84878C2.70613 7.63745 2.59047 7.75311 2.59047 7.89576V9.2582V9.59376V10.6627C2.59047 10.8054 2.70613 10.921 2.84878 10.921C2.99144 10.921 3.10709 10.8054 3.10709 10.6627V9.85208H3.67994C4.28069 9.85208 4.76944 9.36333 4.76944 8.76261V8.72695C4.76947 8.1262 4.28072 7.63745 3.67997 7.63745ZM4.25284 8.76258C4.25284 9.07845 3.99584 9.33542 3.67997 9.33542H3.10709V9.25817V8.15404H3.67994C3.99581 8.15404 4.25281 8.41104 4.25281 8.72689V8.76258H4.25284ZM6.45972 7.63745H5.62856C5.48591 7.63745 5.37025 7.75311 5.37025 7.89576V10.6627C5.37025 10.8054 5.48591 10.921 5.62856 10.921H6.45972C7.06047 10.921 7.54922 10.4323 7.54922 9.83154V8.72695C7.54922 8.1262 7.06047 7.63745 6.45972 7.63745ZM7.03259 9.83151C7.03259 10.1474 6.77559 10.4044 6.45972 10.4044H5.88688V8.15404H6.45972C6.77559 8.15404 7.03259 8.41104 7.03259 8.72689V9.83151ZM8.71688 8.15408V8.86914H9.91428C10.0569 8.86914 10.1726 8.9848 10.1726 9.12745C10.1726 9.27011 10.0569 9.38576 9.91428 9.38576H8.71688V10.6627C8.71688 10.8054 8.60122 10.921 8.45856 10.921C8.31591 10.921 8.20025 10.8054 8.20025 10.6627V7.89576C8.20025 7.75311 8.31591 7.63745 8.45856 7.63745H10.1209C10.2636 7.63745 10.3792 7.75311 10.3792 7.89576C10.3792 8.03842 10.2636 8.15408 10.1209 8.15408H8.71688Z" fill="white"/>
</g>
<path fill-rule="evenodd" clip-rule="evenodd" d="M12.4482 14.4138C12.4482 12.6046 13.9149 11.1379 15.7241 11.1379C17.5324 11.14 18.9979 12.6055 19 14.4138C19 16.223 17.5333 17.6897 15.7241 17.6897C13.9149 17.6897 12.4482 16.223 12.4482 14.4138ZM15.7464 15.9122L17.615 13.3765C17.6782 13.2983 17.6933 13.1917 17.6543 13.099C17.6153 13.0064 17.5286 12.9427 17.4285 12.9331C17.3284 12.9236 17.2312 12.9699 17.1755 13.0535L15.4756 15.3605L14.3629 14.4703C14.2451 14.3761 14.0733 14.3952 13.9791 14.5129C13.8848 14.6307 13.9039 14.8025 14.0216 14.8967L15.356 15.9636C15.4143 16.0092 15.4885 16.0294 15.562 16.0198C15.6354 16.0101 15.7018 15.9714 15.7464 15.9122Z" fill="#00A607"/>
<defs>
<clipPath id="clip0_227_748">
<rect width="16" height="16" fill="white"/>
</clipPath>
</defs>
</svg>
