<svg width="24" height="22" viewBox="0 0 24 22" fill="none" xmlns="http://www.w3.org/2000/svg">
<g clip-path="url(#clip0_204_2931)">
<path fill-rule="evenodd" clip-rule="evenodd" d="M6.58529 0H13.3586L19.3376 5.98012V17.4637C19.3376 18.8582 18.1969 20 16.8013 20H6.58533C5.19087 20 4.05017 18.8582 4.05017 17.4637V2.53629C4.05017 1.14184 5.19087 0 6.58529 0Z" fill="#D5D9E1"/>
<path fill-rule="evenodd" clip-rule="evenodd" d="M13.3586 0L19.3376 5.98012H14.0033C13.6478 5.98012 13.3586 5.68981 13.3586 5.33434V0Z" fill="#A0ACB0"/>
<path fill-rule="evenodd" clip-rule="evenodd" d="M1.21899 8.51636H14.9931C15.2995 8.51636 15.5498 8.76667 15.5498 9.073V14.1261C15.5498 14.4325 15.2995 14.6828 14.9931 14.6828H1.21899C0.912666 14.6828 0.662354 14.4325 0.662354 14.1261V9.073C0.662354 8.76667 0.912705 8.51636 1.21899 8.51636Z" fill="#A0ACB0"/>
<path d="M4.59991 9.54688H3.56093C3.38261 9.54688 3.23804 9.69144 3.23804 9.86977V11.5728V11.9923V13.3284C3.23804 13.5068 3.38261 13.6513 3.56093 13.6513C3.73925 13.6513 3.88382 13.5068 3.88382 13.3284V12.3152H4.59987C5.35081 12.3152 5.96175 11.7042 5.96175 10.9533V10.9088C5.96179 10.1578 5.35085 9.54688 4.59991 9.54688ZM5.31601 10.9533C5.31601 11.3481 4.99476 11.6693 4.59991 11.6693H3.88382V11.5728V10.1926H4.59987C4.99472 10.1926 5.31597 10.5139 5.31597 10.9087V10.9533H5.31601ZM8.0746 9.54688H7.03565C6.85733 9.54688 6.71276 9.69144 6.71276 9.86977V13.3284C6.71276 13.5068 6.85733 13.6513 7.03565 13.6513H8.0746C8.82554 13.6513 9.43647 13.0404 9.43647 12.2895V10.9088C9.43647 10.1578 8.82554 9.54688 8.0746 9.54688ZM8.79069 12.2895C8.79069 12.6843 8.46944 13.0055 8.0746 13.0055H7.35855V10.1926H8.0746C8.46944 10.1926 8.79069 10.5139 8.79069 10.9087V12.2895ZM10.896 10.1927V11.0865H12.3928C12.5711 11.0865 12.7157 11.2311 12.7157 11.4094C12.7157 11.5877 12.5711 11.7323 12.3928 11.7323H10.896V13.3284C10.896 13.5068 10.7515 13.6513 10.5732 13.6513C10.3948 13.6513 10.2503 13.5068 10.2503 13.3284V9.86977C10.2503 9.69144 10.3948 9.54688 10.5732 9.54688H12.6511C12.8294 9.54688 12.974 9.69144 12.974 9.86977C12.974 10.0481 12.8294 10.1927 12.6511 10.1927H10.896Z" fill="white"/>
</g>
<path fill-rule="evenodd" clip-rule="evenodd" d="M15.4814 17.9259C15.4814 15.6758 17.3055 13.8518 19.5555 13.8518C21.8045 13.8544 23.627 15.6769 23.6296 17.9259C23.6296 20.1759 21.8056 22 19.5555 22C17.3055 22 15.4814 20.1759 15.4814 17.9259ZM19.5832 19.7894L21.9071 16.6358C21.9857 16.5385 22.0045 16.406 21.956 16.2908C21.9075 16.1755 21.7996 16.0963 21.6752 16.0844C21.5508 16.0726 21.4299 16.1301 21.3605 16.2341L19.2464 19.1033L17.8626 17.9962C17.7162 17.879 17.5025 17.9027 17.3853 18.0491C17.2681 18.1956 17.2918 18.4093 17.4382 18.5265L19.0977 19.8533C19.1703 19.91 19.2626 19.9352 19.3539 19.9232C19.4452 19.9112 19.5278 19.863 19.5832 19.7894Z" fill="#00A607"/>
<defs>
<clipPath id="clip0_204_2931">
<rect width="20" height="20" fill="white"/>
</clipPath>
</defs>
</svg>
