<svg width="31" height="31" viewBox="0 0 31 31" fill="none" xmlns="http://www.w3.org/2000/svg">
<g clip-path="url(#clip0_204_5185)">
<path d="M12.9167 20.6667H18.0834C18.7938 20.6667 19.375 20.0854 19.375 19.375V12.9167H21.4288C22.5784 12.9167 23.1596 11.5217 22.3459 10.7079L16.4171 4.77918C15.9134 4.27543 15.0996 4.27543 14.5959 4.77918L8.66712 10.7079C7.85337 11.5217 8.42171 12.9167 9.57129 12.9167H11.625V19.375C11.625 20.0854 12.2063 20.6667 12.9167 20.6667ZM7.75004 23.25H23.25C23.9605 23.25 24.5417 23.8313 24.5417 24.5417C24.5417 25.2521 23.9605 25.8333 23.25 25.8333H7.75004C7.03962 25.8333 6.45837 25.2521 6.45837 24.5417C6.45837 23.8313 7.03962 23.25 7.75004 23.25Z" fill="#D5D9E1"/>
</g>
<defs>
<clipPath id="clip0_204_5185">
<rect width="31" height="31" fill="white"/>
</clipPath>
</defs>
</svg>
